<svg width="369" height="307" viewBox="0 0 369 307" fill="none" xmlns="http://www.w3.org/2000/svg">
<path d="M198.874 306.213L225.865 247.64L184.229 233.006L267.5 159.798L234.207 218.334L275.842 232.969L198.874 306.213Z" fill="url(#paint0_linear_474_212)"/>
<path d="M326.709 153.092C319.702 115.34 286.779 87.5542 247.628 87.5542C212.852 87.5542 182.598 109.45 171.55 141.719C167.472 140.755 163.356 140.274 159.167 140.274C129.358 140.274 105.111 164.503 105.111 194.29C105.111 224.04 128.802 247.751 159.167 248.306H166.248C166.063 246.12 165.914 243.898 165.914 241.675C165.914 238.859 166.1 236.08 166.396 233.339H159.315C137.33 232.894 120.09 215.741 120.09 194.253C120.09 172.728 137.589 155.241 159.167 155.241C164.209 155.241 169.103 156.205 173.849 158.131L181.968 161.391L183.97 152.907C190.94 123.269 217.152 102.559 247.665 102.559C281.255 102.559 309.21 127.677 312.769 161.021L313.473 167.726H320.258C320.481 167.726 320.666 167.726 320.888 167.689C338.907 167.801 353.514 182.509 353.514 200.514C353.514 218.297 339.908 233.339 323.743 233.339H315.438C315.735 236.08 315.92 238.859 315.92 241.675C315.92 243.935 315.772 246.12 315.587 248.306H323.669C347.916 248.306 368.419 226.411 368.419 200.514C368.456 176.211 350.252 156.13 326.709 153.092Z" fill="url(#paint1_linear_474_212)"/>
<path d="M231.055 80.1445C224.864 80.5891 205.103 82.812 187.789 98.5945C173.848 111.302 168.88 126.121 167.138 132.531C161.428 131.79 147.488 130.715 132.176 137.866C114.714 146.016 106.298 159.798 103.628 164.651C104.073 160.947 105.185 147.313 96.2503 134.235C89.4285 124.269 80.3451 119.86 76.4893 118.267C88.9094 108.153 109.189 94.2969 137.181 85.3312C178.112 72.1791 213.445 76.662 231.055 80.1445Z" fill="url(#paint2_linear_474_212)"/>
<path d="M183.228 26.3133C151.418 19.941 125.54 9.82687 106.594 0.787109C96.5097 16.9772 83.4964 35.2419 66.8126 53.9142C43.6406 79.922 20.135 99.1871 0.336914 113.117C9.19786 115.562 20.617 117.934 34.0382 118.674C40.4522 119.008 46.4583 118.971 51.9825 118.637V192.512C48.9794 198.143 45.9764 203.737 42.9733 209.368C43.9002 210.369 46.6808 215.518 55.5047 215.518C66.1823 215.518 69.9639 210.146 70.6684 209.368L61.6591 192.623V117.748C64.4027 117.415 66.9979 117.044 69.3707 116.6C80.2708 105.782 95.3975 93.5187 115.492 83.738C174.961 54.8404 233.984 69.2522 253.152 74.8094C260.715 62.176 265.201 47.616 266.759 32.0928C245.255 33.3895 216.448 32.9449 183.228 26.3133Z" fill="url(#paint3_linear_474_212)"/>
<defs>
<linearGradient id="paint0_linear_474_212" x1="184.229" y1="159.798" x2="275.842" y2="159.798" gradientUnits="userSpaceOnUse">
<stop stop-color="#00DDFF"/>
<stop offset="1" stop-color="#FF00D4"/>
</linearGradient>
<linearGradient id="paint1_linear_474_212" x1="105.111" y1="87.5542" x2="368.419" y2="87.5542" gradientUnits="userSpaceOnUse">
<stop stop-color="#00DDFF"/>
<stop offset="1" stop-color="#FF00D4"/>
</linearGradient>
<linearGradient id="paint2_linear_474_212" x1="76.4893" y1="76.4971" x2="231.055" y2="76.4971" gradientUnits="userSpaceOnUse">
<stop stop-color="#00DDFF"/>
<stop offset="1" stop-color="#FF00D4"/>
</linearGradient>
<linearGradient id="paint3_linear_474_212" x1="0.336914" y1="0.787109" x2="266.759" y2="0.787109" gradientUnits="userSpaceOnUse">
<stop stop-color="#00DDFF"/>
<stop offset="1" stop-color="#FF00D4"/>
</linearGradient>
</defs>
</svg>
